<svg width="325" height="81" viewBox="0 0 325 81" fill="none" xmlns="http://www.w3.org/2000/svg">
<path fill-rule="evenodd" clip-rule="evenodd" d="M89.7556 0C83.8154 0 79 4.81542 79 10.7556V36.7111C79 31.3478 74.6522 27 69.2889 27C64.1588 27 60 31.1588 60 36.2889V15.2444C60 9.03431 54.9657 4 48.7556 4C42.8154 4 38 8.81542 38 14.7556V55H60H79H101H121H141H161C161 49.4772 156.523 45 151 45H150.778C145.378 45 141 49.3777 141 54.7778V35.2222C141 29.5766 136.423 25 130.778 25C125.378 25 121 29.3777 121 34.7778V26.2222C121 20.5766 116.423 16 110.778 16C105.378 16 101 20.3777 101 25.7778V11.2444C101 5.03431 95.9657 0 89.7556 0Z" fill="#FE724C"/>
<line x1="1" y1="54" x2="324" y2="54" stroke="#EAE1DF" stroke-width="2" stroke-linecap="round"/>
<line x1="36" y1="54" x2="196" y2="54" stroke="#FE724C" stroke-width="2" stroke-linecap="round"/>
<g filter="url(#filter0_d_78_306)">
<circle cx="38" cy="54" r="12" fill="white"/>
<circle cx="38" cy="54" r="11" stroke="#FE724C" stroke-width="2"/>
</g>
<g filter="url(#filter1_d_78_306)">
<circle cx="197" cy="54" r="12" fill="white"/>
<circle cx="197" cy="54" r="11" stroke="#FE724C" stroke-width="2"/>
</g>
<defs>
<filter id="filter0_d_78_306" x="16" y="37" width="44" height="44" filterUnits="userSpaceOnUse" color-interpolation-filters="sRGB">
<feFlood flood-opacity="0" result="BackgroundImageFix"/>
<feColorMatrix in="SourceAlpha" type="matrix" values="0 0 0 0 0 0 0 0 0 0 0 0 0 0 0 0 0 0 127 0" result="hardAlpha"/>
<feOffset dy="5"/>
<feGaussianBlur stdDeviation="5"/>
<feColorMatrix type="matrix" values="0 0 0 0 0.996078 0 0 0 0 0.447059 0 0 0 0 0.298039 0 0 0 0.2 0"/>
<feBlend mode="normal" in2="BackgroundImageFix" result="effect1_dropShadow_78_306"/>
<feBlend mode="normal" in="SourceGraphic" in2="effect1_dropShadow_78_306" result="shape"/>
</filter>
<filter id="filter1_d_78_306" x="175" y="37" width="44" height="44" filterUnits="userSpaceOnUse" color-interpolation-filters="sRGB">
<feFlood flood-opacity="0" result="BackgroundImageFix"/>
<feColorMatrix in="SourceAlpha" type="matrix" values="0 0 0 0 0 0 0 0 0 0 0 0 0 0 0 0 0 0 127 0" result="hardAlpha"/>
<feOffset dy="5"/>
<feGaussianBlur stdDeviation="5"/>
<feColorMatrix type="matrix" values="0 0 0 0 0.996078 0 0 0 0 0.447059 0 0 0 0 0.298039 0 0 0 0.2 0"/>
<feBlend mode="normal" in2="BackgroundImageFix" result="effect1_dropShadow_78_306"/>
<feBlend mode="normal" in="SourceGraphic" in2="effect1_dropShadow_78_306" result="shape"/>
</filter>
</defs>
</svg>
