<svg width="29" height="29" viewBox="0 0 29 29" fill="none" xmlns="http://www.w3.org/2000/svg">
<path d="M14.4973 5.60599C16.5745 5.57403 18.5833 6.34789 20.1022 7.76516L24.1933 3.76463C21.5686 1.30513 18.094 -0.0435205 14.4973 0.00107157C11.8099 0.0004506 9.17534 0.747422 6.8882 2.15845C4.60106 3.56948 2.75153 5.58893 1.54646 7.99097L6.23418 11.6305C6.80737 9.88761 7.9132 8.36863 9.39571 7.28776C10.8782 6.20688 12.6626 5.61864 14.4973 5.60599V5.60599Z" fill="#EA4335"/>
<path d="M28.4142 14.8201C28.4313 13.8236 28.3283 12.8286 28.1076 11.8567H14.4974V17.2372H22.4873C22.3357 18.1805 21.995 19.0834 21.4854 19.8916C20.9759 20.6999 20.3082 21.3967 19.5225 21.9402L24.0973 25.4835C25.523 24.107 26.6442 22.4468 27.3885 20.61C28.1329 18.7733 28.4837 16.8009 28.4184 14.8201H28.4142Z" fill="#4285F4"/>
<path d="M6.25078 17.3648C5.93382 16.4419 5.77042 15.4733 5.76709 14.4975C5.77287 13.5233 5.93041 12.556 6.23405 11.6303L1.54633 7.99076C0.529597 10.0093 0 12.2381 0 14.4982C0 16.7584 0.529597 18.9871 1.54633 21.0057L6.25078 17.3648Z" fill="#FBBC05"/>
<path d="M14.4974 28.9944C18.0285 29.0942 21.4638 27.8377 24.0972 25.4831L19.5224 21.9398C18.0391 22.9342 16.2824 23.441 14.4974 23.3895C12.6643 23.3786 10.8812 22.7907 9.40098 21.7094C7.92078 20.628 6.81868 19.108 6.251 17.365L1.56328 21.0059C2.7651 23.4068 4.6116 25.4258 6.89598 26.8367C9.18036 28.2476 11.8124 28.9947 14.4974 28.9944Z" fill="#34A853"/>
</svg>
