<svg width="111" height="111" viewBox="0 0 111 111" fill="none" xmlns="http://www.w3.org/2000/svg">
<g filter="url(#filter0_d_286_741)">
<path d="M11.4897 17.2345C11.4897 10.8889 16.6338 5.74485 22.9793 5.74485H65.0413C71.3868 5.74485 76.5309 10.8889 76.5309 17.2345V59.2964C76.5309 65.642 71.3868 70.7861 65.0413 70.7861H22.9793C16.6338 70.7861 11.4897 65.642 11.4897 59.2964V17.2345Z" fill="white"/>
</g>
<g filter="url(#filter1_d_286_741)">
<circle cx="44.1053" cy="38.3604" r="22.6092" fill="#FE724C"/>
</g>
<path d="M57.147 38.7487V48.0548C57.147 49.2328 56.185 50.1948 55.007 50.1948H33.273C32.095 50.1948 31.133 49.2328 31.133 48.0548V38.7487C31.133 39.8285 31.9969 40.6924 33.0767 40.6924H40.5766C40.5766 41.3795 41.1459 41.9489 41.8331 41.9489H46.4076C46.761 41.9489 47.0752 41.8114 47.2911 41.5758C47.5267 41.3402 47.6641 41.0261 47.6641 40.6924H55.1837C56.2831 40.6924 57.147 39.8089 57.147 38.7487Z" fill="#FFC529"/>
<path d="M57.1469 32.5836V38.7288C57.1469 39.8086 56.283 40.6725 55.2032 40.6725H47.6837C47.6837 39.9853 47.1143 39.416 46.4272 39.416H41.8526C41.4992 39.416 41.1851 39.5534 40.9691 39.789C40.7335 40.0246 40.5961 40.3387 40.5961 40.6725H33.0962C32.0164 40.6725 31.1525 39.8086 31.1525 38.7288V32.5836C31.1525 31.4056 32.1146 30.4436 33.2926 30.4436H55.0265C56.1849 30.4436 57.1469 31.4056 57.1469 32.5836Z" fill="#FFA129"/>
<path d="M50.1383 29.7173V30.4438H48.5676V29.8548C48.5676 29.1087 47.959 28.5001 47.2129 28.5001H41.0481C40.3021 28.5001 39.6934 29.1087 39.6934 29.8548V30.4438H38.1228V29.7173C38.1228 28.1467 39.3989 26.8705 40.9696 26.8705H47.3111C48.8621 26.8705 50.1383 28.1467 50.1383 29.7173Z" fill="#FFC529"/>
<path d="M47.6836 40.6921C47.6836 41.0455 47.5462 41.3597 47.3106 41.5756C47.075 41.8112 46.7608 41.9487 46.4271 41.9487H41.8526C41.1654 41.9487 40.596 41.3793 40.596 40.6921C40.596 40.3388 40.7335 40.0246 40.9691 39.8087C41.2047 39.5731 41.5188 39.4356 41.8526 39.4356H46.4271C47.1142 39.4356 47.6836 39.9854 47.6836 40.6921Z" fill="#FFFEFE"/>
<defs>
<filter id="filter0_d_286_741" x="8.77937e-05" y="4.38968e-05" width="111" height="111" filterUnits="userSpaceOnUse" color-interpolation-filters="sRGB">
<feFlood flood-opacity="0" result="BackgroundImageFix"/>
<feColorMatrix in="SourceAlpha" type="matrix" values="0 0 0 0 0 0 0 0 0 0 0 0 0 0 0 0 0 0 127 0" result="hardAlpha"/>
<feOffset dx="11.4823" dy="17.2235"/>
<feGaussianBlur stdDeviation="11.4823"/>
<feColorMatrix type="matrix" values="0 0 0 0 0.827451 0 0 0 0 0.819608 0 0 0 0 0.847059 0 0 0 0.45 0"/>
<feBlend mode="normal" in2="BackgroundImageFix" result="effect1_dropShadow_286_741"/>
<feBlend mode="normal" in="SourceGraphic" in2="effect1_dropShadow_286_741" result="shape"/>
</filter>
<filter id="filter1_d_286_741" x="1.48336" y="0.741681" width="85.2435" height="85.2439" filterUnits="userSpaceOnUse" color-interpolation-filters="sRGB">
<feFlood flood-opacity="0" result="BackgroundImageFix"/>
<feColorMatrix in="SourceAlpha" type="matrix" values="0 0 0 0 0 0 0 0 0 0 0 0 0 0 0 0 0 0 127 0" result="hardAlpha"/>
<feOffset dy="5"/>
<feGaussianBlur stdDeviation="10"/>
<feColorMatrix type="matrix" values="0 0 0 0 0.996078 0 0 0 0 0.447059 0 0 0 0 0.298039 0 0 0 0.3 0"/>
<feBlend mode="normal" in2="BackgroundImageFix" result="effect1_dropShadow_286_741"/>
<feBlend mode="normal" in="SourceGraphic" in2="effect1_dropShadow_286_741" result="shape"/>
</filter>
</defs>
</svg>
