<svg width="35" height="38" viewBox="0 0 35 38" fill="none" xmlns="http://www.w3.org/2000/svg">
<g filter="url(#filter0_d_211_141)">
<path fill-rule="evenodd" clip-rule="evenodd" d="M17.5254 4.40819e-05C13.4586 -0.013772 10.1368 3.22178 10.0041 7.27178L10 7.52317C10.0676 9.5083 10.743 11.4006 11.9326 12.9597L12.212 13.3243C13.3475 14.768 14.6969 16.0353 16.212 17.0798L16.5768 17.3254L16.63 17.3672C17.1494 17.7403 17.8505 17.7403 18.3698 17.3672L18.4141 17.3308C19.6164 16.5511 20.725 15.635 21.7181 14.6005C23.737 12.4634 24.9539 10.0687 24.9998 7.63675L24.9999 7.54645C25.0137 3.46934 21.7881 0.137356 17.7506 0.00413861L17.5254 4.40819e-05ZM17.5208 1.33899C20.8548 1.35039 23.5617 4.01424 23.6622 7.33162L23.6651 7.62412C23.6264 9.66308 22.5589 11.764 20.7528 13.6758C19.8319 14.635 18.7994 15.4876 17.6796 16.2128L17.6049 16.2689C17.5446 16.3212 17.4552 16.3212 17.3948 16.2689L17.3223 16.2142C15.654 15.125 14.1899 13.7498 12.9967 12.1516C12.0357 10.892 11.4662 9.38598 11.3516 7.81495L11.3347 7.49993C11.3461 4.15789 14.0017 1.44268 17.3089 1.34186L17.5208 1.33899ZM17.4999 4.76591C15.9219 4.76591 14.6427 6.04908 14.6427 7.63194C14.6427 9.21481 15.9219 10.498 17.4999 10.498C19.0779 10.498 20.3571 9.21481 20.3571 7.63194C20.3571 6.04908 19.0779 4.76591 17.4999 4.76591ZM17.5 6.10475C18.3408 6.10475 19.0224 6.78847 19.0224 7.63188C19.0224 8.47528 18.3408 9.159 17.5 9.159C16.6592 9.159 15.9775 8.47528 15.9775 7.63188C15.9775 6.78847 16.6592 6.10475 17.5 6.10475Z" fill="#FE724C"/>
</g>
<defs>
<filter id="filter0_d_211_141" x="0" y="0" width="35" height="37.647" filterUnits="userSpaceOnUse" color-interpolation-filters="sRGB">
<feFlood flood-opacity="0" result="BackgroundImageFix"/>
<feColorMatrix in="SourceAlpha" type="matrix" values="0 0 0 0 0 0 0 0 0 0 0 0 0 0 0 0 0 0 127 0" result="hardAlpha"/>
<feOffset dy="10"/>
<feGaussianBlur stdDeviation="5"/>
<feColorMatrix type="matrix" values="0 0 0 0 0.996078 0 0 0 0 0.447059 0 0 0 0 0.298039 0 0 0 0.5 0"/>
<feBlend mode="normal" in2="BackgroundImageFix" result="effect1_dropShadow_211_141"/>
<feBlend mode="normal" in="SourceGraphic" in2="effect1_dropShadow_211_141" result="shape"/>
</filter>
</defs>
</svg>
