<svg width="46" height="46" viewBox="0 0 46 46" fill="none" xmlns="http://www.w3.org/2000/svg">
<g filter="url(#filter0_d_178_5)">
<path d="M31.8163 12.2965C31.6359 10.9943 31.0286 9.7891 30.0902 8.87098C29.1517 7.95286 27.9354 7.37394 26.6327 7.22523C24.1731 6.78318 21.654 6.79179 19.1974 7.25061C15.9861 7.90861 14.5879 9.64433 14.0455 12.9787C13.8768 14.0104 13.7948 15.0544 13.8002 16.0999V16.0999C13.8115 17.3772 13.9423 18.6506 14.1909 19.9034C14.3713 21.2056 14.9785 22.4108 15.9169 23.3289C16.8554 24.247 18.0718 24.8259 19.3744 24.9747C21.834 25.4167 24.3532 25.4081 26.8097 24.9493C30.021 24.2913 31.4193 22.5556 31.9617 19.22C32.1278 18.1884 32.2073 17.1448 32.1994 16.0999V16.0999C32.1906 14.8229 32.0623 13.5495 31.8163 12.2965V12.2965Z" fill="#FFC529"/>
</g>
<defs>
<filter id="filter0_d_178_5" x="-9.62471e-05" y="-4.81235e-05" width="46.0002" height="46.0002" filterUnits="userSpaceOnUse" color-interpolation-filters="sRGB">
<feFlood flood-opacity="0" result="BackgroundImageFix"/>
<feColorMatrix in="SourceAlpha" type="matrix" values="0 0 0 0 0 0 0 0 0 0 0 0 0 0 0 0 0 0 127 0" result="hardAlpha"/>
<feOffset dy="6.83696"/>
<feGaussianBlur stdDeviation="6.83696"/>
<feColorMatrix type="matrix" values="0 0 0 0 1 0 0 0 0 0.772549 0 0 0 0 0.160784 0 0 0 0.5 0"/>
<feBlend mode="normal" in2="BackgroundImageFix" result="effect1_dropShadow_178_5"/>
<feBlend mode="normal" in="SourceGraphic" in2="effect1_dropShadow_178_5" result="shape"/>
</filter>
</defs>
</svg>
