<svg width="81" height="65" viewBox="0 0 81 65" fill="none" xmlns="http://www.w3.org/2000/svg">
<g filter="url(#filter0_d_289_1188)">
<path d="M60.4125 22.5188C60.4086 24.9904 59.672 27.4053 58.2959 29.4583C56.9198 31.5113 54.9659 33.1102 52.6812 34.053C50.3965 34.9957 47.8836 35.2399 45.4602 34.7548C43.0367 34.2696 40.8115 33.0768 39.0658 31.3272C37.3201 29.5776 36.1323 27.3497 35.6526 24.9252C35.1729 22.5006 35.4228 19.9883 36.3706 17.7057C37.3185 15.4232 38.9218 13.4729 40.9779 12.1013C43.034 10.7298 45.4506 9.99872 47.9221 10.0004C49.5649 10.0013 51.1913 10.3259 52.7086 10.9555C54.2259 11.5852 55.6043 12.5077 56.765 13.6702C57.9257 14.8327 58.8459 16.2125 59.4732 17.7308C60.1005 19.2491 60.4225 20.8761 60.4209 22.5188H60.4125Z" fill="#F79F1A"/>
<path d="M44.9983 22.5198C44.9944 24.9913 44.2579 27.4062 42.8817 29.4593C41.5056 31.5123 39.5517 33.1112 37.267 34.0539C34.9824 34.9967 32.4695 35.2409 30.046 34.7557C27.6225 34.2706 25.3973 33.0778 23.6516 31.3282C21.906 29.5786 20.7182 27.3507 20.2385 24.9261C19.7587 22.5016 20.0086 19.9893 20.9565 17.7067C21.9043 15.4241 23.5077 13.4738 25.5638 12.1023C27.6198 10.7308 30.0364 9.99969 32.5079 10.0014C34.1507 10.0023 35.7772 10.3268 37.2945 10.9565C38.8118 11.5862 40.1901 12.5087 41.3508 13.6712C42.5115 14.8337 43.4318 16.2135 44.0591 17.7318C44.6864 19.25 45.0084 20.877 45.0067 22.5198H44.9983Z" fill="#EA001B"/>
<path d="M40.2116 12.664C38.7202 13.8373 37.5145 15.3339 36.6854 17.0409C35.8564 18.7479 35.4256 20.6208 35.4256 22.5184C35.4256 24.4161 35.8564 26.289 36.6854 27.996C37.5145 29.703 38.7202 31.1995 40.2116 32.3728C41.7053 31.2011 42.9126 29.7047 43.7421 27.9971C44.5715 26.2895 45.0014 24.4154 44.9991 22.517C45.0016 20.619 44.5718 18.7453 43.7423 17.0381C42.9128 15.3309 41.7054 13.8351 40.2116 12.664V12.664Z" fill="#FF5F01"/>
</g>
<defs>
<filter id="filter0_d_289_1188" x="0" y="0" width="80.4215" height="65" filterUnits="userSpaceOnUse" color-interpolation-filters="sRGB">
<feFlood flood-opacity="0" result="BackgroundImageFix"/>
<feColorMatrix in="SourceAlpha" type="matrix" values="0 0 0 0 0 0 0 0 0 0 0 0 0 0 0 0 0 0 127 0" result="hardAlpha"/>
<feOffset dy="10"/>
<feGaussianBlur stdDeviation="10"/>
<feColorMatrix type="matrix" values="0 0 0 0 0.917647 0 0 0 0 0 0 0 0 0 0.105882 0 0 0 0.25 0"/>
<feBlend mode="normal" in2="BackgroundImageFix" result="effect1_dropShadow_289_1188"/>
<feBlend mode="normal" in="SourceGraphic" in2="effect1_dropShadow_289_1188" result="shape"/>
</filter>
</defs>
</svg>
