<svg width="60" height="48" viewBox="0 0 60 48" fill="none" xmlns="http://www.w3.org/2000/svg">
<g filter="url(#filter0_d_165_918)">
<path d="M44.0996 19.0142C44.0968 20.7938 43.5664 22.5327 42.5755 24.0111C41.5846 25.4894 40.1777 26.6407 38.5325 27.3195C36.8874 27.9984 35.078 28.1742 33.3329 27.8249C31.5878 27.4755 29.9855 26.6166 28.7285 25.3568C27.4715 24.097 26.6162 22.4927 26.2708 20.7469C25.9253 19.001 26.1053 17.192 26.7878 15.5484C27.4703 13.9048 28.6248 12.5004 30.1054 11.5128C31.5859 10.5253 33.326 9.9988 35.1057 10C36.2886 10.0007 37.4598 10.2344 38.5523 10.6878C39.6449 11.1412 40.6374 11.8054 41.4732 12.6425C42.3089 13.4796 42.9716 14.4732 43.4233 15.5664C43.875 16.6597 44.1069 17.8313 44.1057 19.0142H44.0996Z" fill="#F79F1A"/>
<path d="M33 19.0142C32.9972 20.7938 32.4668 22.5327 31.4759 24.0111C30.485 25.4894 29.0781 26.6407 27.4329 27.3195C25.7878 27.9984 23.9783 28.1742 22.2333 27.8249C20.4882 27.4755 18.8859 26.6166 17.6289 25.3568C16.3719 24.097 15.5166 22.4927 15.1712 20.7469C14.8257 19.001 15.0057 17.192 15.6882 15.5484C16.3707 13.9048 17.5252 12.5004 19.0058 11.5128C20.4863 10.5253 22.2264 9.9988 24.0061 10C25.189 10.0007 26.3601 10.2344 27.4527 10.6878C28.5452 11.1412 29.5378 11.8054 30.3735 12.6425C31.2093 13.4796 31.872 14.4732 32.3237 15.5664C32.7754 16.6597 33.0073 17.8313 33.0061 19.0142H33Z" fill="#EA001B"/>
<path d="M29.5537 11.9182C28.4797 12.7631 27.6115 13.8407 27.0146 15.0698C26.4176 16.299 26.1074 17.6476 26.1074 19.0141C26.1074 20.3805 26.4176 21.7291 27.0146 22.9583C27.6115 24.1874 28.4797 25.265 29.5537 26.1099C30.6292 25.2662 31.4985 24.1887 32.0958 22.9591C32.6931 21.7295 33.0026 20.38 33.001 19.013C33.0028 17.6463 32.6933 16.2971 32.096 15.0678C31.4987 13.8385 30.6293 12.7614 29.5537 11.9182V11.9182Z" fill="#FF5F01"/>
</g>
<defs>
<filter id="filter0_d_165_918" x="0" y="0" width="59.1055" height="48" filterUnits="userSpaceOnUse" color-interpolation-filters="sRGB">
<feFlood flood-opacity="0" result="BackgroundImageFix"/>
<feColorMatrix in="SourceAlpha" type="matrix" values="0 0 0 0 0 0 0 0 0 0 0 0 0 0 0 0 0 0 127 0" result="hardAlpha"/>
<feOffset dy="5"/>
<feGaussianBlur stdDeviation="7.5"/>
<feColorMatrix type="matrix" values="0 0 0 0 0.917647 0 0 0 0 0 0 0 0 0 0.105882 0 0 0 0.25 0"/>
<feBlend mode="normal" in2="BackgroundImageFix" result="effect1_dropShadow_165_918"/>
<feBlend mode="normal" in="SourceGraphic" in2="effect1_dropShadow_165_918" result="shape"/>
</filter>
</defs>
</svg>
