<svg width="59" height="59" viewBox="0 0 59 59" fill="none" xmlns="http://www.w3.org/2000/svg">
<g filter="url(#filter0_d_216_613)">
<path d="M29.5 36.7212C37.4031 36.7212 43.8099 30.3144 43.8099 22.4113C43.8099 14.5081 37.4031 8.10137 29.5 8.10137C21.5968 8.10137 15.1901 14.5081 15.1901 22.4113C15.1901 30.3144 21.5968 36.7212 29.5 36.7212Z" fill="#FE724C"/>
</g>
<path d="M32.6228 16.2789C31.8921 16.279 31.1745 16.4737 30.5438 16.8428C29.9131 17.2119 29.3921 17.7423 29.0341 18.3794C28.6761 17.7421 28.1549 17.2117 27.524 16.8425C26.8931 16.4734 26.1753 16.2788 25.4444 16.2789C24.3249 16.3394 23.2718 16.8291 22.5042 17.6462C21.7366 18.4633 21.3136 19.5448 21.3231 20.6659C21.3231 26.3827 29.0341 30.3711 29.0341 30.3711C29.0341 30.3711 36.7451 26.3848 36.7451 20.6659C36.7546 19.5447 36.3314 18.463 35.5636 17.6458C34.7958 16.8287 33.7425 16.3391 32.6228 16.2789V16.2789Z" fill="white"/>
<defs>
<filter id="filter0_d_216_613" x="0" y="0" width="59" height="59" filterUnits="userSpaceOnUse" color-interpolation-filters="sRGB">
<feFlood flood-opacity="0" result="BackgroundImageFix"/>
<feColorMatrix in="SourceAlpha" type="matrix" values="0 0 0 0 0 0 0 0 0 0 0 0 0 0 0 0 0 0 127 0" result="hardAlpha"/>
<feOffset dy="7"/>
<feGaussianBlur stdDeviation="7.5"/>
<feColorMatrix type="matrix" values="0 0 0 0 0.996078 0 0 0 0 0.447059 0 0 0 0 0.298039 0 0 0 0.4 0"/>
<feBlend mode="normal" in2="BackgroundImageFix" result="effect1_dropShadow_216_613"/>
<feBlend mode="normal" in="SourceGraphic" in2="effect1_dropShadow_216_613" result="shape"/>
</filter>
</defs>
</svg>
