<svg width="20" height="20" viewBox="0 0 20 20" fill="none" xmlns="http://www.w3.org/2000/svg">
<rect width="20.0002" height="20.0002" rx="6.70833" fill="#9796A1"/>
<rect x="4.99987" y="1.99985" width="11.0001" height="14.0001" fill="white"/>
<rect x="4.99987" y="1.99985" width="11.0001" height="11.0001" fill="white"/>
<path d="M10.0001 0C4.4792 0 0 4.4792 0 10.0001C0 15.521 4.4792 20.0002 10.0001 20.0002C15.521 20.0002 20.0002 15.521 20.0002 10.0001C20.0002 4.4792 15.521 0 10.0001 0ZM9.68758 15.8335C9.48156 15.8335 9.28016 15.7724 9.10886 15.6579C8.93756 15.5435 8.80404 15.3808 8.7252 15.1904C8.64636 15.0001 8.62573 14.7906 8.66592 14.5886C8.70612 14.3865 8.80533 14.2009 8.95101 14.0552C9.09669 13.9095 9.2823 13.8103 9.48436 13.7701C9.68643 13.7299 9.89587 13.7506 10.0862 13.8294C10.2766 13.9083 10.4392 14.0418 10.5537 14.2131C10.6682 14.3844 10.7293 14.5858 10.7293 14.7918C10.7293 15.0681 10.6195 15.333 10.4242 15.5284C10.2288 15.7237 9.96385 15.8335 9.68758 15.8335ZM11.4293 10.5209C10.585 11.0876 10.4688 11.6069 10.4688 12.0834C10.4688 12.2768 10.392 12.4623 10.2553 12.599C10.1185 12.7358 9.93305 12.8126 9.73967 12.8126C9.54628 12.8126 9.36081 12.7358 9.22406 12.599C9.08732 12.4623 9.01049 12.2768 9.01049 12.0834C9.01049 10.9423 9.5355 10.035 10.6157 9.30945C11.6199 8.63549 12.1876 8.2084 12.1876 7.26933C12.1876 6.63079 11.823 6.14589 11.0683 5.78703C10.8907 5.70265 10.4954 5.62036 10.0089 5.62609C9.39852 5.6339 8.92455 5.77974 8.55945 6.07349C7.8709 6.62766 7.81257 7.23079 7.81257 7.23964C7.80795 7.3354 7.78452 7.42931 7.74361 7.51601C7.7027 7.60271 7.64511 7.68051 7.57414 7.74495C7.50316 7.8094 7.42019 7.85923 7.32996 7.89161C7.23972 7.92399 7.14399 7.93828 7.04824 7.93366C6.95248 7.92904 6.85857 7.90561 6.77187 7.8647C6.68517 7.82379 6.60738 7.76621 6.54293 7.69523C6.47849 7.62426 6.42865 7.54128 6.39627 7.45105C6.36389 7.36082 6.3496 7.26509 6.35422 7.16933C6.35995 7.04277 6.44797 5.90265 7.64434 4.94015C8.26465 4.44118 9.05372 4.18181 9.98811 4.17035C10.6496 4.16254 11.2709 4.27452 11.6923 4.47348C12.9532 5.06983 13.6459 6.06411 13.6459 7.26933C13.6459 9.03133 12.4683 9.82248 11.4293 10.5209Z" fill="#9796A1"/>
</svg>
