<svg width="111" height="111" viewBox="0 0 111 111" fill="none" xmlns="http://www.w3.org/2000/svg">
<g filter="url(#filter0_d_286_764)">
<path d="M11.4897 17.2345C11.4897 10.8889 16.6338 5.74485 22.9793 5.74485H65.0413C71.3868 5.74485 76.5309 10.8889 76.5309 17.2345V59.2964C76.5309 65.642 71.3868 70.7861 65.0413 70.7861H22.9793C16.6338 70.7861 11.4897 65.642 11.4897 59.2964V17.2345Z" fill="white"/>
</g>
<g filter="url(#filter1_d_286_764)">
<circle cx="44.1053" cy="38.3604" r="22.6092" fill="#FE724C"/>
</g>
<path d="M52.7938 28.3086V47.6473H35.5166V28.3086C35.5166 27.111 36.4983 26.1293 37.6959 26.1293H50.6146C51.8122 26.1293 52.7938 27.111 52.7938 28.3086Z" fill="#FFC529"/>
<path d="M40.7195 31.4302H39.9538C39.2666 31.4302 38.7169 30.8805 38.7169 30.1933V29.4276C38.7169 28.7404 39.2666 28.1907 39.9538 28.1907H40.7195C41.4067 28.1907 41.9564 28.7404 41.9564 29.4276V30.1933C41.976 30.8805 41.4067 31.4302 40.7195 31.4302Z" fill="white"/>
<path d="M48.4353 31.4302H47.6696C46.9825 31.4302 46.4327 30.8805 46.4327 30.1933V29.4276C46.4327 28.7404 46.9825 28.1907 47.6696 28.1907H48.4353C49.1225 28.1907 49.6722 28.7404 49.6722 29.4276V30.1933C49.6722 30.8805 49.1225 31.4302 48.4353 31.4302Z" fill="white"/>
<path d="M40.7195 36.8296H39.9538C39.2666 36.8296 38.7169 36.2799 38.7169 35.5927V34.827C38.7169 34.1399 39.2666 33.5901 39.9538 33.5901H40.7195C41.4067 33.5901 41.9564 34.1399 41.9564 34.827V35.5927C41.976 36.2799 41.4067 36.8296 40.7195 36.8296Z" fill="white"/>
<path d="M48.4353 36.8296H47.6696C46.9825 36.8296 46.4327 36.2799 46.4327 35.5927V34.827C46.4327 34.1399 46.9825 33.5901 47.6696 33.5901H48.4353C49.1225 33.5901 49.6722 34.1399 49.6722 34.827V35.5927C49.6722 36.2799 49.1225 36.8296 48.4353 36.8296Z" fill="white"/>
<path d="M40.7195 42.2481H39.9538C39.2666 42.2481 38.7169 41.6983 38.7169 41.0112V40.2455C38.7169 39.5583 39.2666 39.0086 39.9538 39.0086H40.7195C41.4067 39.0086 41.9564 39.5583 41.9564 40.2455V41.0112C41.976 41.6787 41.4067 42.2481 40.7195 42.2481Z" fill="white"/>
<path d="M48.4353 42.2481H47.6696C46.9825 42.2481 46.4327 41.6983 46.4327 41.0112V40.2455C46.4327 39.5583 46.9825 39.0086 47.6696 39.0086H48.4353C49.1225 39.0086 49.6722 39.5583 49.6722 40.2455V41.0112C49.6722 41.6787 49.1225 42.2481 48.4353 42.2481Z" fill="white"/>
<path d="M55.091 48.8647C55.091 49.1985 54.9536 49.5126 54.7376 49.7286C54.5216 49.9445 54.2075 50.082 53.8737 50.082H34.594C33.9068 50.082 33.3571 49.5322 33.3571 48.8451C33.3571 48.5113 33.4945 48.1972 33.7105 47.9812C33.9264 47.7653 34.2406 47.6278 34.5743 47.6278H53.8541C54.5413 47.6475 55.091 48.1972 55.091 48.8647Z" fill="#FFA129"/>
<path d="M46.4325 45.5663V47.6278H41.9954V45.5663C41.9954 44.3491 42.9966 43.3478 44.2139 43.3478C45.4312 43.3478 46.4325 44.3491 46.4325 45.5663Z" fill="#F39822"/>
<defs>
<filter id="filter0_d_286_764" x="8.77937e-05" y="4.38968e-05" width="111" height="111" filterUnits="userSpaceOnUse" color-interpolation-filters="sRGB">
<feFlood flood-opacity="0" result="BackgroundImageFix"/>
<feColorMatrix in="SourceAlpha" type="matrix" values="0 0 0 0 0 0 0 0 0 0 0 0 0 0 0 0 0 0 127 0" result="hardAlpha"/>
<feOffset dx="11.4823" dy="17.2235"/>
<feGaussianBlur stdDeviation="11.4823"/>
<feColorMatrix type="matrix" values="0 0 0 0 0.827451 0 0 0 0 0.819608 0 0 0 0 0.847059 0 0 0 0.45 0"/>
<feBlend mode="normal" in2="BackgroundImageFix" result="effect1_dropShadow_286_764"/>
<feBlend mode="normal" in="SourceGraphic" in2="effect1_dropShadow_286_764" result="shape"/>
</filter>
<filter id="filter1_d_286_764" x="1.48336" y="0.741681" width="85.2435" height="85.2439" filterUnits="userSpaceOnUse" color-interpolation-filters="sRGB">
<feFlood flood-opacity="0" result="BackgroundImageFix"/>
<feColorMatrix in="SourceAlpha" type="matrix" values="0 0 0 0 0 0 0 0 0 0 0 0 0 0 0 0 0 0 127 0" result="hardAlpha"/>
<feOffset dy="5"/>
<feGaussianBlur stdDeviation="10"/>
<feColorMatrix type="matrix" values="0 0 0 0 0.996078 0 0 0 0 0.447059 0 0 0 0 0.298039 0 0 0 0.3 0"/>
<feBlend mode="normal" in2="BackgroundImageFix" result="effect1_dropShadow_286_764"/>
<feBlend mode="normal" in="SourceGraphic" in2="effect1_dropShadow_286_764" result="shape"/>
</filter>
</defs>
</svg>
