<svg width="84" height="73" viewBox="0 0 84 73" fill="none" xmlns="http://www.w3.org/2000/svg">
<path d="M80.1884 47.4971H72.8097C71.0017 47.4971 69.4868 46.0312 69.4868 44.1743C69.4868 43.2458 69.8778 42.4151 70.4641 41.8287C71.0505 41.2423 71.8813 40.8514 72.8097 40.8514H73.8847C74.8132 40.8514 75.6439 40.4605 76.2303 39.8741C76.8167 39.2877 77.2076 38.457 77.2076 37.5286C77.2076 35.7205 75.7416 34.2057 73.8847 34.2057H49.9406C50.2338 33.717 50.3804 33.1795 50.3804 32.642C50.3804 30.8828 48.9633 29.4657 47.2041 29.4657H38.0174V27.56H70.9528C72.3699 27.56 73.6893 26.9736 74.6177 26.0451C75.5462 25.1167 76.1326 23.7973 76.1326 22.3802C76.1326 19.4972 73.787 17.2005 70.9528 17.2005H50.0872C49.5497 15.8322 48.1815 14.8061 46.5689 14.8061H34.8412V8.94219H58.0523C59.0296 8.94219 59.9581 8.55127 60.5933 7.91602C61.2286 7.28076 61.6195 6.40118 61.6195 5.37501C61.6195 3.42038 60.0069 1.80782 58.0523 1.80782H10.2129C9.23559 1.80782 8.30715 2.19874 7.67189 2.834C7.03664 3.46925 6.64572 4.34883 6.64572 5.37501C6.64572 7.32963 8.25828 8.94219 10.2129 8.94219H11.4345C13.0471 8.94219 14.4153 10.2616 14.4153 11.923C14.4153 12.7537 14.0733 13.4867 13.5358 14.0242C12.9982 14.5617 12.2653 14.9038 11.4345 14.9038H5.52181C4.49563 14.9038 3.51832 15.3436 2.8342 16.0277C2.15009 16.7118 1.71029 17.6403 1.71029 18.7153C1.71029 20.8165 3.42059 22.478 5.47294 22.478H11.4834C13.438 22.478 15.0506 24.0905 15.0506 26.0451C15.0506 27.0225 14.6597 27.902 14.0244 28.5373C13.3892 29.1725 12.5096 29.5635 11.5323 29.5635H6.15706C5.27748 29.5635 4.49563 29.9055 3.90925 30.4919C3.32286 31.0783 2.9808 31.8601 2.9808 32.7397C2.9808 34.4989 4.3979 35.916 6.15706 35.916H10.5061C12.9982 35.916 15.0017 37.9195 15.0017 40.4116C15.0017 41.6333 14.5131 42.806 13.6824 43.5879C12.8516 44.4186 11.7277 44.9073 10.5061 44.9073H4.44677C3.22513 44.9073 2.10122 45.3959 1.31937 46.2266C0.488656 47.0085 0 48.1324 0 49.354C0 51.7973 2.00349 53.8008 4.44677 53.8008H26.3874C27.0715 54.6315 28.1466 55.169 29.3193 55.169H35.0855V60.7886H24.4328C23.3577 60.7886 22.4293 61.2284 21.7452 61.9125C21.0611 62.5966 20.6213 63.5739 20.6213 64.6001C20.6213 66.7013 22.3316 68.4116 24.4328 68.4116H75.253C76.328 68.4116 77.2565 67.9718 77.9406 67.2877C78.6247 66.6036 79.0645 65.6263 79.0645 64.6001C79.0645 62.4989 77.3542 60.7886 75.253 60.7886H73.7381C72.1744 60.7886 70.9528 59.5181 70.9528 58.0032C70.9528 57.2214 71.246 56.5373 71.7835 56.0486C72.2722 55.5599 73.0052 55.2179 73.787 55.2179H80.1884C81.2634 55.2179 82.1919 54.7781 82.876 54.094C83.5601 53.4099 83.9999 52.4325 83.9999 51.4064C83.9999 49.2074 82.2896 47.4971 80.1884 47.4971Z" fill="#F2EAEA" fill-opacity="0.75"/>
<path d="M66.6527 12.4604V65.3818C66.6527 69.2422 63.5253 72.4185 59.6161 72.4185H57.3194C55.9023 72.4185 54.7295 71.6366 53.7522 70.6104C52.1885 68.9001 51.3578 66.6523 51.3578 64.3068V58.1986C51.3578 55.7553 49.3543 53.7518 46.9111 53.7518H18.6179V12.4604C18.6179 10.2615 20.4259 8.45343 22.6249 8.45343H62.6458C64.8936 8.45343 66.6527 10.2615 66.6527 12.4604Z" fill="#FFC529"/>
<path d="M57.3681 72.4182H15.246C10.506 72.4182 6.64561 68.5578 6.64561 63.8179V58.1983C6.64561 55.755 8.6491 53.7516 11.0924 53.7516H47.0086C49.4519 53.7516 51.4553 55.755 51.4553 58.1983V64.3065C51.4553 66.6032 52.2861 68.8999 53.8498 70.6102C54.7782 71.6364 55.951 72.4182 57.3681 72.4182Z" fill="#FFA129"/>
<path d="M29.5637 30.6873C31.2639 30.6873 32.6422 29.309 32.6422 27.6087C32.6422 25.9085 31.2639 24.5302 29.5637 24.5302C27.8635 24.5302 26.4852 25.9085 26.4852 27.6087C26.4852 29.309 27.8635 30.6873 29.5637 30.6873Z" fill="white"/>
<path d="M56.0489 30.7362H40.021C38.3107 30.7362 36.9425 29.3679 36.9425 27.6576C36.9425 25.9473 38.3107 24.5791 40.021 24.5791H56.0978C57.8081 24.5791 59.1763 25.9473 59.1763 27.6576C59.1763 29.3191 57.7592 30.7362 56.0489 30.7362Z" fill="white"/>
<path d="M29.5637 40.0695C31.2639 40.0695 32.6422 38.6912 32.6422 36.991C32.6422 35.2908 31.2639 33.9125 29.5637 33.9125C27.8635 33.9125 26.4852 35.2908 26.4852 36.991C26.4852 38.6912 27.8635 40.0695 29.5637 40.0695Z" fill="white"/>
<path d="M56.0489 40.0695H40.021C38.3107 40.0695 36.9425 38.7013 36.9425 36.991C36.9425 35.2807 38.3107 33.9125 40.021 33.9125H56.0978C57.8081 33.9125 59.1763 35.2807 59.1763 36.991C59.1763 38.7013 57.7592 40.0695 56.0489 40.0695Z" fill="white"/>
<path d="M29.5637 49.4518C31.2639 49.4518 32.6422 48.0735 32.6422 46.3733C32.6422 44.6731 31.2639 43.2948 29.5637 43.2948C27.8635 43.2948 26.4852 44.6731 26.4852 46.3733C26.4852 48.0735 27.8635 49.4518 29.5637 49.4518Z" fill="white"/>
<path d="M56.0489 49.4518H40.021C38.3107 49.4518 36.9425 48.0836 36.9425 46.3733C36.9425 44.663 38.3107 43.2948 40.021 43.2948H56.0978C57.8081 43.2948 59.1763 44.663 59.1763 46.3733C59.1763 48.0836 57.7592 49.4518 56.0489 49.4518Z" fill="white"/>
<path d="M57.3679 72.4187H37.5774C37.4308 72.0766 37.3819 71.7346 37.3819 71.3437C37.3819 70.4641 37.724 69.6822 38.3103 69.0958C38.8967 68.5095 39.6786 68.1674 40.5582 68.1674H45.8845C46.8618 68.1674 47.7414 67.7765 48.3766 67.1412C49.0119 66.506 49.4028 65.6264 49.4028 64.6491C49.4028 62.6945 47.7903 61.0819 45.8356 61.0819H39.874C37.7728 61.0819 36.1114 59.3716 36.1114 57.3193C36.1114 56.2931 36.5512 55.3158 37.2353 54.6316C37.6262 54.2407 38.0171 53.9964 38.5547 53.8009H47.0573C49.5006 53.8009 51.504 55.8044 51.504 58.2477V64.3559C51.504 66.7014 52.2859 68.9493 53.8985 70.6596C54.7292 71.6369 55.9508 72.4187 57.3679 72.4187Z" fill="#F39822"/>
<path d="M64.6004 23.1623C70.9965 23.1623 76.1815 17.9772 76.1815 11.5811C76.1815 5.18505 70.9965 0 64.6004 0C58.2043 0 53.0192 5.18505 53.0192 11.5811C53.0192 17.9772 58.2043 23.1623 64.6004 23.1623Z" fill="#FF735C"/>
<path d="M71.2462 7.52557L68.9984 5.22889L64.6005 9.62679L60.2026 5.22889L57.9059 7.52557L62.3038 11.8746L57.9059 16.2725L60.2026 18.5692L64.6005 14.1713L68.9984 18.5692L71.2462 16.2725L66.8972 11.8746L71.2462 7.52557Z" fill="#F6F6F6"/>
</svg>
