<svg width="91" height="91" viewBox="0 0 91 91" fill="none" xmlns="http://www.w3.org/2000/svg">
<g filter="url(#filter0_d_274_1933)">
<path d="M45 5H26C17.1634 5 10 12.1634 10 21V40C10 48.8366 17.1634 56 26 56H45C53.8366 56 61 48.8366 61 40V21C61 12.1634 53.8366 5 45 5Z" fill="white"/>
</g>
<path d="M44.94 30C44.7135 27.9721 43.8042 26.0815 42.3613 24.6387C40.9185 23.1958 39.0279 22.2865 37 22.06V21C37 20.45 36.55 20 36 20C35.45 20 35 20.45 35 21V22.06C32.9721 22.2865 31.0815 23.1958 29.6387 24.6387C28.1958 26.0815 27.2865 27.9721 27.06 30H26C25.45 30 25 30.45 25 31C25 31.55 25.45 32 26 32H27.06C27.2865 34.0279 28.1958 35.9185 29.6387 37.3613C31.0815 38.8042 32.9721 39.7135 35 39.94V41C35 41.55 35.45 42 36 42C36.55 42 37 41.55 37 41V39.94C39.0279 39.7135 40.9185 38.8042 42.3613 37.3613C43.8042 35.9185 44.7135 34.0279 44.94 32H46C46.55 32 47 31.55 47 31C47 30.45 46.55 30 46 30H44.94ZM36 38C32.13 38 29 34.87 29 31C29 27.13 32.13 24 36 24C39.87 24 43 27.13 43 31C43 34.87 39.87 38 36 38Z" fill="#FE724C"/>
<circle cx="36" cy="31" r="4" fill="#FFA68E"/>
<defs>
<filter id="filter0_d_274_1933" x="0" y="0" width="91" height="91" filterUnits="userSpaceOnUse" color-interpolation-filters="sRGB">
<feFlood flood-opacity="0" result="BackgroundImageFix"/>
<feColorMatrix in="SourceAlpha" type="matrix" values="0 0 0 0 0 0 0 0 0 0 0 0 0 0 0 0 0 0 127 0" result="hardAlpha"/>
<feOffset dx="10" dy="15"/>
<feGaussianBlur stdDeviation="10"/>
<feColorMatrix type="matrix" values="0 0 0 0 0.827451 0 0 0 0 0.819608 0 0 0 0 0.847059 0 0 0 0.3 0"/>
<feBlend mode="normal" in2="BackgroundImageFix" result="effect1_dropShadow_274_1933"/>
<feBlend mode="normal" in="SourceGraphic" in2="effect1_dropShadow_274_1933" result="shape"/>
</filter>
</defs>
</svg>
