<svg width="435" height="385" viewBox="0 0 435 385" fill="none" xmlns="http://www.w3.org/2000/svg">
<path d="M187 206C213.51 206 235 184.51 235 158C235 131.49 213.51 110 187 110C160.49 110 139 131.49 139 158C139 184.51 160.49 206 187 206Z" fill="#FFE2DA"/>
<g filter="url(#filter0_d_274_3345)">
<path d="M161 260V179.41C161 110.709 105.475 55 37 55V135.59C37 204.291 92.5251 260 161 260Z" fill="#FFC529"/>
</g>
<g filter="url(#filter1_d_274_3345)">
<path d="M241 305V192.929C241 97.4203 318.9 20 415 20V132.071C415 227.58 337.1 305 241 305Z" fill="#FE724C"/>
</g>
<defs>
<filter id="filter0_d_274_3345" x="0" y="29" width="194" height="275" filterUnits="userSpaceOnUse" color-interpolation-filters="sRGB">
<feFlood flood-opacity="0" result="BackgroundImageFix"/>
<feColorMatrix in="SourceAlpha" type="matrix" values="0 0 0 0 0 0 0 0 0 0 0 0 0 0 0 0 0 0 127 0" result="hardAlpha"/>
<feOffset dx="-2" dy="9"/>
<feGaussianBlur stdDeviation="17.5"/>
<feColorMatrix type="matrix" values="0 0 0 0 1 0 0 0 0 0.772549 0 0 0 0 0.160784 0 0 0 0.25 0"/>
<feBlend mode="normal" in2="BackgroundImageFix" result="effect1_dropShadow_274_3345"/>
<feBlend mode="normal" in="SourceGraphic" in2="effect1_dropShadow_274_3345" result="shape"/>
</filter>
<filter id="filter1_d_274_3345" x="161" y="0" width="274" height="385" filterUnits="userSpaceOnUse" color-interpolation-filters="sRGB">
<feFlood flood-opacity="0" result="BackgroundImageFix"/>
<feColorMatrix in="SourceAlpha" type="matrix" values="0 0 0 0 0 0 0 0 0 0 0 0 0 0 0 0 0 0 127 0" result="hardAlpha"/>
<feOffset dx="-30" dy="30"/>
<feGaussianBlur stdDeviation="25"/>
<feColorMatrix type="matrix" values="0 0 0 0 0.996078 0 0 0 0 0.447059 0 0 0 0 0.298039 0 0 0 0.2 0"/>
<feBlend mode="normal" in2="BackgroundImageFix" result="effect1_dropShadow_274_3345"/>
<feBlend mode="normal" in="SourceGraphic" in2="effect1_dropShadow_274_3345" result="shape"/>
</filter>
</defs>
</svg>
