<svg width="79" height="79" viewBox="0 0 79 79" fill="none" xmlns="http://www.w3.org/2000/svg">
<g filter="url(#filter0_d_286_861)">
<rect x="15" y="10" width="39" height="39" rx="12" fill="white"/>
</g>
<path opacity="0.4" d="M44.9056 25.8927C44.4394 25.8927 44.0597 25.5111 44.0535 25.0363V23.7864C44.0686 22.7255 43.6686 21.7021 42.9416 20.9421C42.2147 20.1821 41.2207 19.7481 40.1791 19.7359H39.2701C38.7995 19.7359 38.418 19.3473 38.418 18.868C38.418 18.3886 38.7995 18 39.2701 18H40.1791C43.2899 18.038 45.792 20.6176 45.7918 23.7864V25.0247C45.798 25.2528 45.7133 25.4736 45.5571 25.6371C45.4009 25.8006 45.1864 25.8928 44.9624 25.8927V25.8927H44.9056Z" fill="#200E32"/>
<path opacity="0.4" d="M25.0225 25.8927C24.7975 25.8958 24.5807 25.8069 24.4206 25.646C24.2605 25.485 24.1703 25.2654 24.1703 25.0363V25.0363V23.7864C24.1521 22.2582 24.7354 20.7862 25.79 19.6989C26.8446 18.6117 28.2826 17.9999 29.7831 18H30.7148C31.1854 18 31.5669 18.3886 31.5669 18.868C31.5669 19.3473 31.1854 19.7359 30.7148 19.7359H29.7945C28.744 19.7327 27.7364 20.1602 26.999 20.9223C26.2615 21.6843 25.8563 22.7166 25.8746 23.7864V25.0363C25.8684 25.5111 25.4887 25.8927 25.0225 25.8927Z" fill="#200E32"/>
<path d="M45.757 31.0195V34.2715C45.7206 37.4 43.2495 39.9324 40.1783 39.9885H39.258C38.9322 40.027 38.6136 39.8716 38.4387 39.5889C38.2639 39.3062 38.2639 38.9464 38.4387 38.6637C38.6136 38.381 38.9322 38.2256 39.258 38.2641H40.1783C42.345 38.2578 44.0982 36.4669 44.0981 34.2599V31.0195H45.757Z" fill="#200E32"/>
<path d="M31.5665 39.1321C31.5604 39.6089 31.1824 39.9938 30.7144 40.0001H29.7827C26.6718 39.962 24.1697 37.3825 24.1699 34.2136V31.0195H25.8742V34.2715C25.8742 36.474 27.6204 38.263 29.7827 38.2757H30.7144C30.9393 38.2726 31.1561 38.3615 31.3162 38.5224C31.4764 38.6834 31.5665 38.903 31.5665 39.1321V39.1321Z" fill="#200E32"/>
<path d="M47.8824 30.1514C47.8824 30.6307 47.5008 31.0193 47.0302 31.0193H22.8521C22.3815 31.0193 22 30.6307 22 30.1514C22 29.672 22.3815 29.2834 22.8521 29.2834H46.9961C47.228 29.274 47.4536 29.3612 47.6208 29.525C47.7881 29.6888 47.8825 29.915 47.8824 30.1514V30.1514Z" fill="#200E32"/>
<path opacity="0.4" d="M40.8606 27.1891V25.6962C40.8606 24.9749 40.5793 24.2831 40.0785 23.7731C39.5778 23.2631 38.8987 22.9766 38.1905 22.9766H31.6915C30.2169 22.9766 29.0215 24.1942 29.0215 25.6962V27.1891C29.0274 27.3655 29.1664 27.5071 29.3396 27.5131H40.5424C40.7156 27.5071 40.8547 27.3655 40.8606 27.1891Z" fill="#200E32"/>
<path d="M40.8606 31.0195V32.3157C40.8606 33.8177 39.6651 35.0353 38.1905 35.0353H31.6915C30.2169 35.0353 29.0215 33.8177 29.0215 32.3157V31.0195H40.8606Z" fill="#200E32"/>
<defs>
<filter id="filter0_d_286_861" x="0" y="0" width="79" height="79" filterUnits="userSpaceOnUse" color-interpolation-filters="sRGB">
<feFlood flood-opacity="0" result="BackgroundImageFix"/>
<feColorMatrix in="SourceAlpha" type="matrix" values="0 0 0 0 0 0 0 0 0 0 0 0 0 0 0 0 0 0 127 0" result="hardAlpha"/>
<feOffset dx="5" dy="10"/>
<feGaussianBlur stdDeviation="10"/>
<feColorMatrix type="matrix" values="0 0 0 0 0.827451 0 0 0 0 0.819608 0 0 0 0 0.847059 0 0 0 0.3 0"/>
<feBlend mode="normal" in2="BackgroundImageFix" result="effect1_dropShadow_286_861"/>
<feBlend mode="normal" in="SourceGraphic" in2="effect1_dropShadow_286_861" result="shape"/>
</filter>
</defs>
</svg>
