<svg width="132" height="111" viewBox="0 0 132 111" fill="none" xmlns="http://www.w3.org/2000/svg">
<path d="M126.01 71.7975H114.415C111.574 71.7975 109.194 69.4938 109.194 66.5758C109.194 65.1168 109.808 63.8114 110.729 62.89C111.651 61.9685 112.956 61.3542 114.415 61.3542H116.105C117.564 61.3542 118.869 60.7399 119.79 59.8184C120.712 58.897 121.326 57.5915 121.326 56.1326C121.326 53.2914 119.023 50.9109 116.105 50.9109H78.4781C78.9388 50.143 79.1692 49.2984 79.1692 48.4537C79.1692 45.6893 76.9423 43.4624 74.1779 43.4624H59.7416V40.4677H111.497C113.724 40.4677 115.797 39.5462 117.256 38.0872C118.715 36.6282 119.637 34.5549 119.637 32.3281C119.637 27.7975 115.951 24.1884 111.497 24.1884H78.7084C77.8638 22.0384 75.7137 20.4258 73.1796 20.4258H54.7504V11.2112H91.225C92.7608 11.2112 94.2198 10.5968 95.218 9.59859C96.2163 8.60034 96.8306 7.21814 96.8306 5.60558C96.8306 2.53403 94.2965 0 91.225 0H16.0488C14.5131 0 13.0541 0.61431 12.0558 1.61256C11.0576 2.61082 10.4433 3.99301 10.4433 5.60558C10.4433 8.67713 12.9773 11.2112 16.0488 11.2112H17.9686C20.5026 11.2112 22.6527 13.2844 22.6527 15.8953C22.6527 17.2007 22.1152 18.3525 21.2705 19.1972C20.4258 20.0419 19.274 20.5794 17.9686 20.5794H8.67712C7.06456 20.5794 5.52879 21.2705 4.45375 22.3455C3.3787 23.4206 2.68761 24.8795 2.68761 26.5689C2.68761 29.8708 5.37521 32.4816 8.60034 32.4816H18.0453C21.1169 32.4816 23.6509 35.0157 23.6509 38.0872C23.6509 39.623 23.0366 41.0052 22.0384 42.0034C21.0401 43.0017 19.6579 43.616 18.1221 43.616H9.67538C8.29318 43.616 7.06456 44.1535 6.1431 45.075C5.22163 45.9964 4.68411 47.2251 4.68411 48.6073C4.68411 51.3717 6.91098 53.5985 9.67538 53.5985H16.5096C20.4258 53.5985 23.5741 56.7469 23.5741 60.6631C23.5741 62.5828 22.8062 64.4257 21.5008 65.6544C20.1954 66.9598 18.4293 67.7277 16.5096 67.7277H6.98777C5.06806 67.7277 3.30191 68.4955 2.0733 69.8009C0.767887 71.0296 0 72.7957 0 74.7154C0 78.5549 3.14834 81.7032 6.98777 81.7032H41.4659C42.5409 83.0086 44.2303 83.8533 46.0732 83.8533H55.1343V92.684H38.3944C36.705 92.684 35.246 93.3751 34.171 94.4501C33.0959 95.5252 32.4048 97.0609 32.4048 98.6735C32.4048 101.975 35.0924 104.663 38.3944 104.663H118.255C119.944 104.663 121.403 103.972 122.478 102.897C123.553 101.822 124.244 100.286 124.244 98.6735C124.244 95.3716 121.557 92.684 118.255 92.684H115.874C113.417 92.684 111.497 90.6875 111.497 88.307C111.497 87.0784 111.958 86.0034 112.803 85.2355C113.571 84.4676 114.722 83.9301 115.951 83.9301H126.01C127.7 83.9301 129.159 83.239 130.234 82.1639C131.309 81.0889 132 79.5531 132 77.9406C132 74.4851 129.312 71.7975 126.01 71.7975Z" fill="#F2EAEA" fill-opacity="0.75"/>
<path d="M104.74 16.7398V99.902C104.74 105.968 99.8256 110.96 93.6825 110.96H90.0734C87.8465 110.96 86.0036 109.731 84.4678 108.118C82.0106 105.431 80.7052 101.898 80.7052 98.2126V88.614C80.7052 84.7746 77.5569 81.6262 73.7174 81.6262H29.2568V16.7398C29.2568 13.2843 32.0979 10.4431 35.5534 10.4431H98.4434C101.976 10.4431 104.74 13.2843 104.74 16.7398Z" fill="#FFC529"/>
<path d="M90.1498 110.959H23.9579C16.5094 110.959 10.4431 104.893 10.4431 97.4442V88.6134C10.4431 84.774 13.5914 81.6257 17.4309 81.6257H73.8706C77.71 81.6257 80.8584 84.774 80.8584 88.6134V98.212C80.8584 101.821 82.1638 105.43 84.621 108.118C86.08 109.73 87.9229 110.959 90.1498 110.959Z" fill="#FFA129"/>
<path d="M46.4571 45.3821C49.1289 45.3821 51.2948 43.2162 51.2948 40.5444C51.2948 37.8726 49.1289 35.7067 46.4571 35.7067C43.7854 35.7067 41.6195 37.8726 41.6195 40.5444C41.6195 43.2162 43.7854 45.3821 46.4571 45.3821Z" fill="white"/>
<path d="M88.0766 45.4586H62.8899C60.2023 45.4586 58.0522 43.3085 58.0522 40.6209C58.0522 37.9333 60.2023 35.7832 62.8899 35.7832H88.1534C90.841 35.7832 92.9911 37.9333 92.9911 40.6209C92.9911 43.2317 90.7642 45.4586 88.0766 45.4586Z" fill="white"/>
<path d="M46.4571 60.1257C49.1289 60.1257 51.2948 57.9598 51.2948 55.288C51.2948 52.6162 49.1289 50.4503 46.4571 50.4503C43.7854 50.4503 41.6195 52.6162 41.6195 55.288C41.6195 57.9598 43.7854 60.1257 46.4571 60.1257Z" fill="white"/>
<path d="M88.0766 60.1252H62.8899C60.2023 60.1252 58.0522 57.9751 58.0522 55.2875C58.0522 52.5999 60.2023 50.4498 62.8899 50.4498H88.1534C90.841 50.4498 92.9911 52.5999 92.9911 55.2875C92.9911 57.9751 90.7642 60.1252 88.0766 60.1252Z" fill="white"/>
<path d="M46.4571 74.8693C49.1289 74.8693 51.2948 72.7033 51.2948 70.0316C51.2948 67.3598 49.1289 65.1939 46.4571 65.1939C43.7854 65.1939 41.6195 67.3598 41.6195 70.0316C41.6195 72.7033 43.7854 74.8693 46.4571 74.8693Z" fill="white"/>
<path d="M88.0766 74.8688H62.8899C60.2023 74.8688 58.0522 72.7187 58.0522 70.0311C58.0522 67.3435 60.2023 65.1934 62.8899 65.1934H88.1534C90.841 65.1934 92.9911 67.3435 92.9911 70.0311C92.9911 72.7187 90.7642 74.8688 88.0766 74.8688Z" fill="white"/>
<path d="M90.1495 110.96H59.05C58.8197 110.423 58.7429 109.885 58.7429 109.271C58.7429 107.889 59.2804 106.66 60.2019 105.738C61.1233 104.817 62.3519 104.28 63.7341 104.28H72.1041C73.6399 104.28 75.0221 103.665 76.0203 102.667C77.0186 101.669 77.6329 100.286 77.6329 98.7507C77.6329 95.6792 75.0989 93.1451 72.0273 93.1451H62.6591C59.3572 93.1451 56.7464 90.4575 56.7464 87.2324C56.7464 85.6198 57.4375 84.0841 58.5125 83.009C59.1268 82.3947 59.7411 82.0108 60.5858 81.7036H73.947C77.7865 81.7036 80.9348 84.852 80.9348 88.6914V98.29C80.9348 101.976 82.1634 105.508 84.6975 108.196C86.0029 109.732 87.9226 110.96 90.1495 110.96Z" fill="#F39822"/>
</svg>
