<svg width="17" height="18" viewBox="0 0 17 18" fill="none" xmlns="http://www.w3.org/2000/svg">
<path d="M15.6516 7.51348C15.5708 6.79346 15.2372 6.12542 14.7103 5.62816C14.1833 5.13091 13.497 4.83664 12.7735 4.79769V4.58653C12.774 3.98401 12.6554 3.38724 12.4244 2.83078C12.1934 2.27431 11.8546 1.76913 11.4275 1.34413C11.0021 0.917432 10.4963 0.579007 9.93973 0.348337C9.38311 0.117668 8.78663 -0.000713265 8.18411 3.23305e-06C6.96713 2.15129e-06 5.79983 0.483047 4.93872 1.34301C4.07761 2.20297 3.5931 3.36955 3.59148 4.58653V4.79981C2.87733 4.85026 2.20334 5.14932 1.68685 5.64511C1.17037 6.14089 0.844039 6.80199 0.764441 7.51348L0 14.4871C0.00147176 14.95 0.0940611 15.4081 0.272588 15.8351C0.451114 16.2622 0.712125 16.65 1.04052 16.9762C1.36891 17.3024 1.75819 17.5607 2.18643 17.7364C2.61468 17.9121 3.07329 18.0016 3.53616 18H12.8747C13.3375 18.0016 13.7961 17.9121 14.2244 17.7364C14.6526 17.5607 15.0422 17.3024 15.3706 16.9762C15.6989 16.65 15.9597 16.2622 16.1382 15.8351C16.3168 15.4081 16.4093 14.95 16.4108 14.4871L15.6516 7.51348ZM4.9447 4.59363C4.94456 4.16815 5.02814 3.74678 5.19087 3.35365C5.35361 2.96052 5.59221 2.60333 5.89302 2.30242C6.19384 2.00151 6.55093 1.76275 6.94401 1.5999C7.33709 1.43704 7.75862 1.35322 8.18411 1.35322C8.60953 1.35287 9.0307 1.43665 9.42371 1.59952C9.81672 1.7624 10.1737 2.00124 10.4742 2.30242C10.7756 2.60293 11.0147 2.96007 11.1776 3.35328C11.3405 3.74649 11.4239 4.16801 11.4233 4.59363V4.79059H4.9437L4.9447 4.59363ZM5.58356 9.35868C5.36702 9.35868 5.15936 9.27272 5.00624 9.1196C4.85313 8.96649 4.76704 8.75883 4.76704 8.54229C4.76704 8.32574 4.85313 8.11809 5.00624 7.96497C5.15936 7.81185 5.36702 7.72577 5.58356 7.72577C5.8001 7.72577 6.00776 7.81185 6.16088 7.96497C6.314 8.11809 6.40008 8.32574 6.40008 8.54229C6.40008 8.75883 6.314 8.96649 6.16088 9.1196C6.00776 9.27272 5.8001 9.35868 5.58356 9.35868ZM10.8427 9.35868C10.6262 9.35868 10.4185 9.27272 10.2654 9.1196C10.1123 8.96649 10.0262 8.75883 10.0262 8.54229C10.0262 8.32574 10.1123 8.11809 10.2654 7.96497C10.4185 7.81185 10.6262 7.72577 10.8427 7.72577C11.0592 7.72577 11.2669 7.81185 11.42 7.96497C11.5731 8.11809 11.659 8.32574 11.659 8.54229C11.659 8.75883 11.5731 8.96649 11.42 9.1196C11.2669 9.27272 11.0592 9.35868 10.8427 9.35868Z" fill="#FE724C"/>
</svg>
