<svg width="81" height="65" viewBox="0 0 81 65" fill="none" xmlns="http://www.w3.org/2000/svg">
<g filter="url(#filter0_d_211_263)">
<path d="M60.412 22.5188C60.4081 24.9904 59.6715 27.4053 58.2954 29.4583C56.9193 31.5113 54.9654 33.1102 52.6807 34.053C50.396 34.9957 47.8831 35.2399 45.4597 34.7548C43.0362 34.2696 40.811 33.0768 39.0653 31.3272C37.3196 29.5776 36.1318 27.3497 35.6521 24.9252C35.1724 22.5006 35.4223 19.9883 36.3701 17.7057C37.318 15.4232 38.9213 13.4729 40.9774 12.1013C43.0335 10.7298 45.4501 9.99872 47.9216 10.0004C49.5644 10.0013 51.1909 10.3259 52.7081 10.9555C54.2254 11.5852 55.6038 12.5077 56.7645 13.6702C57.9252 14.8327 58.8455 16.2125 59.4727 17.7308C60.1 19.2491 60.4221 20.8761 60.4204 22.5188H60.412Z" fill="#F79F1A"/>
<path d="M44.9983 22.5198C44.9944 24.9913 44.2579 27.4062 42.8817 29.4593C41.5056 31.5123 39.5517 33.1112 37.267 34.0539C34.9824 34.9967 32.4695 35.2409 30.046 34.7557C27.6225 34.2706 25.3973 33.0778 23.6516 31.3282C21.906 29.5786 20.7182 27.3507 20.2385 24.9261C19.7587 22.5016 20.0086 19.9893 20.9565 17.7067C21.9043 15.4241 23.5077 13.4738 25.5638 12.1023C27.6198 10.7308 30.0364 9.99969 32.5079 10.0014C34.1507 10.0023 35.7772 10.3268 37.2945 10.9565C38.8118 11.5862 40.1901 12.5087 41.3508 13.6712C42.5115 14.8337 43.4318 16.2135 44.0591 17.7318C44.6864 19.25 45.0084 20.877 45.0067 22.5198H44.9983Z" fill="#EA001B"/>
<path d="M40.2121 12.664C38.7206 13.8373 37.515 15.3339 36.6859 17.0409C35.8569 18.7479 35.4261 20.6208 35.4261 22.5184C35.4261 24.4161 35.8569 26.289 36.6859 27.996C37.515 29.703 38.7206 31.1995 40.2121 32.3728C41.7058 31.2011 42.9131 29.7047 43.7426 27.9971C44.572 26.2895 45.0019 24.4154 44.9996 22.517C45.0021 20.619 44.5723 18.7453 43.7428 17.0381C42.9133 15.3309 41.7059 13.8351 40.2121 12.664V12.664Z" fill="#FF5F01"/>
</g>
<defs>
<filter id="filter0_d_211_263" x="0" y="0" width="80.421" height="65" filterUnits="userSpaceOnUse" color-interpolation-filters="sRGB">
<feFlood flood-opacity="0" result="BackgroundImageFix"/>
<feColorMatrix in="SourceAlpha" type="matrix" values="0 0 0 0 0 0 0 0 0 0 0 0 0 0 0 0 0 0 127 0" result="hardAlpha"/>
<feOffset dy="10"/>
<feGaussianBlur stdDeviation="10"/>
<feColorMatrix type="matrix" values="0 0 0 0 0.917647 0 0 0 0 0 0 0 0 0 0.105882 0 0 0 0.25 0"/>
<feBlend mode="normal" in2="BackgroundImageFix" result="effect1_dropShadow_211_263"/>
<feBlend mode="normal" in="SourceGraphic" in2="effect1_dropShadow_211_263" result="shape"/>
</filter>
</defs>
</svg>
