<svg width="15" height="15" viewBox="0 0 15 15" fill="none" xmlns="http://www.w3.org/2000/svg">
<path d="M12.0192 14.9998C11.3655 14.9998 10.4472 14.7634 9.07215 13.9953C7.40006 13.0578 6.10673 12.1923 4.44368 10.5339C2.84024 8.93176 2.05995 7.89448 0.967884 5.90764C-0.26584 3.66432 -0.055531 2.48843 0.17956 1.98586C0.459525 1.38519 0.872776 1.02592 1.40692 0.669335C1.71031 0.470596 2.03138 0.300232 2.36604 0.160404C2.39953 0.146007 2.43067 0.132279 2.45847 0.119891C2.62424 0.0452252 2.8754 -0.06761 3.19354 0.0529262C3.40586 0.132614 3.59541 0.295673 3.89212 0.588643C4.50061 1.18865 5.33213 2.52492 5.63889 3.18118C5.84485 3.62348 5.98115 3.91544 5.98148 4.2429C5.98148 4.62627 5.78859 4.92192 5.5545 5.24101C5.51063 5.30094 5.46709 5.35819 5.4249 5.41377C5.17005 5.7486 5.11412 5.84536 5.15096 6.01813C5.22564 6.36534 5.78256 7.39894 6.6978 8.312C7.61305 9.22506 8.61704 9.74672 8.96566 9.82105C9.14583 9.85955 9.24462 9.80129 9.59023 9.53745C9.63979 9.49962 9.69069 9.46044 9.74394 9.42127C10.1009 9.15575 10.3829 8.96792 10.7573 8.96792H10.7593C11.0852 8.96792 11.3641 9.10921 11.8263 9.34225C12.4291 9.64627 13.8058 10.4669 14.4096 11.076C14.7033 11.3719 14.867 11.5608 14.9471 11.7727C15.0676 12.0918 14.9541 12.3419 14.8801 12.5093C14.8677 12.5371 14.854 12.5676 14.8396 12.6014C14.6986 12.9354 14.5272 13.2557 14.3275 13.5583C13.9716 14.0907 13.6109 14.5029 13.0088 14.7831C12.6996 14.9293 12.3612 15.0034 12.0192 14.9998Z" fill="#FE724C"/>
</svg>
