<svg width="71" height="71" viewBox="0 0 71 71" fill="none" xmlns="http://www.w3.org/2000/svg">
<g filter="url(#filter0_d_288_462)">
<path d="M35.4999 44.0688C44.9649 44.0688 52.6379 36.3959 52.6379 26.9309C52.6379 17.4658 44.9649 9.7929 35.4999 9.7929C26.0349 9.7929 18.3619 17.4658 18.3619 26.9309C18.3619 36.3959 26.0349 44.0688 35.4999 44.0688Z" fill="#FE724C"/>
</g>
<path d="M39.2397 19.5863C38.3645 19.5864 37.5051 19.8195 36.7498 20.2616C35.9944 20.7037 35.3704 21.3389 34.9417 22.1019C34.5129 21.3387 33.8887 20.7034 33.1331 20.2613C32.3776 19.8192 31.5179 19.5862 30.6425 19.5863C29.3018 19.6587 28.0406 20.2452 27.1213 21.2238C26.202 22.2024 25.6954 23.4977 25.7068 24.8403C25.7068 31.6869 34.9417 36.4635 34.9417 36.4635C34.9417 36.4635 44.1766 31.6894 44.1766 24.8403C44.188 23.4975 43.6812 22.202 42.7616 21.2234C41.8421 20.2448 40.5806 19.6584 39.2397 19.5863V19.5863Z" fill="white"/>
<defs>
<filter id="filter0_d_288_462" x="-0.000170603" y="-0.00022236" width="71.0003" height="71.0003" filterUnits="userSpaceOnUse" color-interpolation-filters="sRGB">
<feFlood flood-opacity="0" result="BackgroundImageFix"/>
<feColorMatrix in="SourceAlpha" type="matrix" values="0 0 0 0 0 0 0 0 0 0 0 0 0 0 0 0 0 0 127 0" result="hardAlpha"/>
<feOffset dy="8.52632"/>
<feGaussianBlur stdDeviation="9.13534"/>
<feColorMatrix type="matrix" values="0 0 0 0 0.996078 0 0 0 0 0.447059 0 0 0 0 0.298039 0 0 0 0.4 0"/>
<feBlend mode="normal" in2="BackgroundImageFix" result="effect1_dropShadow_288_462"/>
<feBlend mode="normal" in="SourceGraphic" in2="effect1_dropShadow_288_462" result="shape"/>
</filter>
</defs>
</svg>
