<svg width="25" height="30" viewBox="0 0 25 30" fill="none" xmlns="http://www.w3.org/2000/svg">
<path fill-rule="evenodd" clip-rule="evenodd" d="M12.544 4.92172e-05C15.8675 0.014755 19.0439 1.33827 21.3674 3.66178C23.7057 5.99999 25.0145 9.16173 24.9998 12.4411V12.5146C24.9115 16.9705 22.4115 21.0734 19.2939 24.2792C17.5292 26.088 15.5734 27.691 13.441 29.0439C12.8675 29.5292 12.0293 29.5292 11.4558 29.0439C8.29404 26.9851 5.49995 24.3969 3.23526 21.3822C1.24999 18.7646 0.117646 15.6175 0 12.3382C0.0294115 5.5 5.647 -0.0146565 12.544 4.92172e-05ZM12.5444 16.5587C13.5885 16.5587 14.5885 16.1616 15.3238 15.441C16.0885 14.6911 16.5164 13.6925 16.5164 12.647C16.5164 10.4705 14.7355 8.72052 12.5444 8.72052C10.3532 8.72052 8.58853 10.4705 8.58853 12.647C8.58853 14.7955 10.3238 16.5293 12.5003 16.5587H12.5444Z" fill="#FE724C"/>
</svg>
