<svg width="19" height="19" viewBox="0 0 19 19" fill="none" xmlns="http://www.w3.org/2000/svg">
<path d="M9.4905 0C4.2465 0 0 4.256 0 9.5C0 14.744 4.2465 19 9.4905 19C14.744 19 19 14.744 19 9.5C19 4.256 14.744 0 9.4905 0ZM9.5 17.1C5.301 17.1 1.9 13.699 1.9 9.5C1.9 5.301 5.301 1.9 9.5 1.9C13.699 1.9 17.1 5.301 17.1 9.5C17.1 13.699 13.699 17.1 9.5 17.1ZM9.291 4.75H9.234C8.854 4.75 8.55 5.054 8.55 5.434V9.918C8.55 10.2505 8.721 10.564 9.0155 10.735L12.958 13.1005C13.281 13.2905 13.699 13.1955 13.889 12.8725C13.9367 12.7956 13.9684 12.7098 13.9823 12.6204C13.9962 12.531 13.9919 12.4396 13.9698 12.3519C13.9476 12.2641 13.908 12.1817 13.8533 12.1096C13.7986 12.0374 13.73 11.9771 13.6515 11.932L9.975 9.747V5.434C9.975 5.054 9.671 4.75 9.291 4.75V4.75Z" fill="#9796A1"/>
</svg>
