<svg width="26" height="26" viewBox="0 0 26 26" fill="none" xmlns="http://www.w3.org/2000/svg">
<g filter="url(#filter0_d_274_1923)">
<path d="M19.7081 6.10606C19.5709 5.11522 19.1088 4.19825 18.3948 3.49968C17.6807 2.80111 16.7553 2.36062 15.7641 2.24748C13.8926 1.91113 11.9759 1.91769 10.1068 2.26679C7.6634 2.76744 6.59949 4.0881 6.18681 6.62512C6.05849 7.41014 5.99606 8.2045 6.00019 8.99999V8.99999C6.00881 9.97184 6.10831 10.9407 6.29743 11.8939C6.4347 12.8848 6.89672 13.8017 7.61076 14.5003C8.3248 15.1989 9.2503 15.6394 10.2415 15.7525C12.1129 16.0889 14.0296 16.0823 15.8987 15.7332C18.3421 15.2325 19.4061 13.9119 19.8187 11.3739C19.9452 10.5891 20.0057 9.795 19.9996 8.99999V8.99999C19.9929 8.02833 19.8953 7.05944 19.7081 6.10606V6.10606Z" fill="#FFC529"/>
</g>
<defs>
<filter id="filter0_d_274_1923" x="0" y="0" width="26" height="26" filterUnits="userSpaceOnUse" color-interpolation-filters="sRGB">
<feFlood flood-opacity="0" result="BackgroundImageFix"/>
<feColorMatrix in="SourceAlpha" type="matrix" values="0 0 0 0 0 0 0 0 0 0 0 0 0 0 0 0 0 0 127 0" result="hardAlpha"/>
<feOffset dy="4"/>
<feGaussianBlur stdDeviation="3"/>
<feColorMatrix type="matrix" values="0 0 0 0 1 0 0 0 0 0.772549 0 0 0 0 0.160784 0 0 0 0.5 0"/>
<feBlend mode="normal" in2="BackgroundImageFix" result="effect1_dropShadow_274_1923"/>
<feBlend mode="normal" in="SourceGraphic" in2="effect1_dropShadow_274_1923" result="shape"/>
</filter>
</defs>
</svg>
