<svg width="26" height="26" viewBox="0 0 26 26" fill="none" xmlns="http://www.w3.org/2000/svg">
<circle cx="13" cy="13" r="13" fill="white"/>
<path d="M17.9711 7.28859L17.9711 7.28859C17.9749 7.29283 17.9836 7.30291 17.995 7.31624C18.026 7.35224 18.0773 7.41197 18.1086 7.4447L18.3975 7.168L18.1078 7.44387C19.5665 8.97535 20.3077 10.8173 20.3392 12.9821C20.3362 13.6622 20.263 14.3235 20.0947 14.9658L20.0943 14.9676C19.6464 16.7092 18.7445 18.1347 17.3725 19.2075L17.3723 19.2076C15.2524 20.8673 12.9122 21.2721 10.3799 20.4969L10.3795 20.4968C8.89574 20.0439 7.66936 19.1469 6.68715 17.8676C5.65255 16.5168 5.10407 14.978 5.04819 13.2453L5.04817 13.2448C5.00066 11.824 5.29913 10.4884 5.96119 9.25133C6.35515 8.51588 6.77774 7.86587 7.37991 7.38612L7.38112 7.38516C7.68295 7.14279 7.98921 7.05819 8.32784 7.12618C8.79154 7.22028 9.09963 7.48525 9.24529 7.95188C9.38928 8.42537 9.30096 8.82896 8.97117 9.18495L8.96817 9.18818L8.96819 9.1882C8.93785 9.22168 8.9028 9.25269 8.84645 9.30253C8.84174 9.3067 8.83688 9.311 8.83187 9.31544C8.77449 9.36624 8.69482 9.43739 8.62356 9.5252C8.6234 9.52539 8.62324 9.52558 8.62309 9.52577L8.93383 9.77765C8.16983 10.7127 7.76002 11.7975 7.77758 13.026L17.9711 7.28859ZM17.9711 7.28859L17.9692 7.28641C17.5677 6.83279 16.9043 6.75812 16.4358 7.09539L16.4353 7.09572C15.9373 7.45316 15.7683 8.11666 16.0469 8.66837L16.0482 8.6711C16.1101 8.79596 16.2102 8.92301 16.3297 9.04248L16.3315 9.04426C17.768 10.4982 18.3448 12.2735 17.8344 14.3294L17.8343 14.3295C17.3469 16.2894 16.0919 17.5916 14.2447 18.1773L14.2441 18.1775C12.4437 18.7457 10.7478 18.3828 9.2945 17.1614L17.9711 7.28859Z" fill="#FE724C" stroke="white" stroke-width="0.8"/>
<path d="M11.5116 5.34025C11.5057 7.60073 11.5057 8.39471 11.5116 10.655C11.5138 11.3041 11.9834 11.8172 12.5622 11.8749L12.5637 11.8751C13.1759 11.9385 13.7314 11.5298 13.857 10.8882L13.857 10.8879C13.8723 10.8101 13.8759 10.7218 13.8759 10.6025C13.87 9.49303 13.87 9.11466 13.87 8.00546C13.87 7.59767 13.8704 7.28635 13.8708 7.00178C13.8714 6.50037 13.8719 6.08197 13.87 5.36512C13.8676 4.86432 13.6557 4.51105 13.2485 4.27746L13.2482 4.27729C12.8563 4.05207 12.4706 4.0602 12.0859 4.30255L12.0859 4.30255L12.0847 4.30329C11.7102 4.5374 11.5116 4.87817 11.5116 5.33921L11.5116 5.34025Z" fill="#FE724C" stroke="white" stroke-width="0.8"/>
</svg>
