<svg width="35" height="35" viewBox="0 0 35 35" fill="none" xmlns="http://www.w3.org/2000/svg">
<rect width="35" height="35" rx="17.5" fill="white"/>
<path d="M22.0193 24.9999C21.3656 24.9999 20.4473 24.7635 19.0722 23.9954C17.4001 23.0579 16.1068 22.1924 14.4437 20.534C12.8403 18.9318 12.06 17.8945 10.9679 15.9077C9.73416 13.6644 9.94447 12.4884 10.1796 11.9859C10.4595 11.3852 10.8728 11.0259 11.4069 10.6693C11.7103 10.4706 12.0314 10.3002 12.3661 10.1604C12.3995 10.146 12.4307 10.1323 12.4585 10.1199C12.6243 10.0452 12.8754 9.93239 13.1936 10.0529C13.4059 10.1326 13.5954 10.2957 13.8922 10.5886C14.5006 11.1887 15.3322 12.5249 15.6389 13.1812C15.8449 13.6235 15.9812 13.9155 15.9815 14.2429C15.9815 14.6263 15.7886 14.922 15.5545 15.241C15.5107 15.301 15.4671 15.3582 15.4249 15.4138C15.1701 15.7486 15.1142 15.8454 15.151 16.0182C15.2257 16.3654 15.7826 17.399 16.6979 18.3121C17.6131 19.2251 18.6171 19.7468 18.9657 19.8211C19.1459 19.8596 19.2447 19.8014 19.5903 19.5375C19.6399 19.4997 19.6908 19.4605 19.744 19.4213C20.101 19.1558 20.383 18.968 20.7574 18.968H20.7594C21.0853 18.968 21.3642 19.1093 21.8264 19.3423C22.4292 19.6463 23.8059 20.467 24.4097 21.0761C24.7034 21.372 24.8672 21.5609 24.9472 21.7728C25.0678 22.0919 24.9542 22.342 24.8802 22.5094C24.8678 22.5372 24.8541 22.5677 24.8397 22.6015C24.6987 22.9355 24.5273 23.2558 24.3277 23.5584C23.9717 24.0908 23.611 24.503 23.0089 24.7832C22.6997 24.9295 22.3613 25.0035 22.0193 24.9999Z" fill="#FE724C"/>
</svg>
